<svg width="95" height="116" viewBox="0 0 95 116" fill="none" xmlns="http://www.w3.org/2000/svg">
<path d="M59.3229 6.47714V14.8857C59.3229 16.4114 58.92 17.5771 58.1143 18.3829C57.3257 19.1886 56.1514 19.5914 54.5914 19.5914H35.4086C34.0371 19.5914 32.9914 19.9514 32.2714 20.6714C31.5514 21.3743 31.1914 22.42 31.1914 23.8086V32.0371C31.1914 33.3914 31.5514 34.4286 32.2714 35.1486C32.9914 35.8686 34.0371 36.2286 35.4086 36.2286H53.2286C54.7714 36.2286 55.9371 36.6314 56.7257 37.4371C57.5314 38.2257 57.9343 39.3914 57.9343 40.9343V49.3429C57.9343 50.8686 57.5314 52.0343 56.7257 52.84C55.9371 53.6457 54.7714 54.0486 53.2286 54.0486H35.9229C34.38 54.0486 33.2057 54.4514 32.4 55.2571C31.5943 56.0457 31.1914 57.22 31.1914 58.78V77.2943C31.1914 78.82 30.7886 79.9857 29.9829 80.7914C29.1943 81.5971 28.0286 82 26.4857 82H6.42857C4.90286 82 3.73714 81.5971 2.93143 80.7914C2.12571 79.9857 1.72286 78.82 1.72286 77.2943V6.47714C1.72286 4.93428 2.12571 3.76857 2.93143 2.98C3.73714 2.17428 4.90286 1.77143 6.42857 1.77143H54.5914C56.1514 1.77143 57.3257 2.17428 58.1143 2.98C58.92 3.76857 59.3229 4.93428 59.3229 6.47714Z" fill="black"/>
<path d="M33.7057 35.7714H89.4286C90.9714 35.7714 92.1371 36.1743 92.9257 36.98C93.7314 37.7686 94.1343 38.9343 94.1343 40.4771V48.8857C94.1343 50.4114 93.7314 51.5771 92.9257 52.3829C92.1371 53.1886 90.9714 53.5914 89.4286 53.5914H79.9914C78.7914 53.5914 77.8743 53.9086 77.24 54.5429C76.6229 55.16 76.3143 56.0771 76.3143 57.2943V111.294C76.3143 112.82 75.9114 113.986 75.1057 114.791C74.3171 115.597 73.1514 116 71.6086 116H51.5514C50.0086 116 48.8343 115.597 48.0286 114.791C47.2229 113.986 46.82 112.82 46.82 111.294V57.2943C46.82 56.0771 46.5114 55.16 45.8943 54.5429C45.2771 53.9086 44.36 53.5914 43.1429 53.5914H33.7057C32.18 53.5914 31.0143 53.1886 30.2086 52.3829C29.4029 51.5771 29 50.4114 29 48.8857V40.4771C29 38.9343 29.4029 37.7686 30.2086 36.98C31.0143 36.1743 32.18 35.7714 33.7057 35.7714Z" fill="black"/>
<rect x="68" width="27" height="27" rx="7" fill="black"/>
<rect x="2" y="89" width="27" height="27" rx="7" fill="black"/>
</svg>
